<?xml version="1.0" encoding="iso-8859-1"?>
<!-- Generator: Adobe Illustrator 16.0.0, SVG Export Plug-In . SVG Version: 6.00 Build 0)  -->
<!DOCTYPE svg PUBLIC "-//W3C//DTD SVG 1.1//EN" "http://www.w3.org/Graphics/SVG/1.1/DTD/svg11.dtd">
<svg version="1.1" id="Capa_1" xmlns="http://www.w3.org/2000/svg" xmlns:xlink="http://www.w3.org/1999/xlink" x="0px" y="0px"
	 width="60px" height="50px" viewBox="0 0 159.438 159.438" style="enable-background:new 0 0 159.438 159.438;"
	 xml:space="preserve">
<g>
	<path d="M157.824,45.67c-1.456-1.089-3.449-1.073-4.884,0.029l-41.96,32.031L83.426,15.501c-1.309-2.932-6.104-2.932-7.412,0
		L48.149,78.445L6.555,45.731c-1.442-1.124-3.452-1.155-4.915-0.071c-1.469,1.076-2.025,3.019-1.366,4.714l28.901,74.672
		c0.599,1.562,2.104,2.584,3.773,2.584h93.54c1.677,0,3.175-1.018,3.771-2.584l28.903-74.672
		C159.822,48.685,159.268,46.757,157.824,45.67z M79.724,27.145l24.632,55.646l-25.724,19.633L54.728,83.629L79.724,27.145z
		 M44.769,86.091l-11.729,26.494L13.163,61.23L44.769,86.091z M38.823,119.536l12.524-28.276l20.637,16.231l-15.783,12.045H38.823z
		 M69.551,119.536l9.007-6.866l8.738,6.866H69.551z M100.111,119.303l-14.908-11.723l22.513-17.191l12.904,29.136h-20.245
		C100.301,119.457,100.206,119.377,100.111,119.303z M126.41,112.585l-12.055-27.248l32.078-24.487L126.41,112.585z
		 M130.123,142.084c0,2.236-1.814,4.051-4.051,4.051H33.371c-2.236,0-4.05-1.814-4.05-4.051c0-2.235,1.814-4.05,4.05-4.05h92.701
		C128.313,138.035,130.123,139.849,130.123,142.084z" fill="#ffffff" />
</g>
<g>
</g>
<g>
</g>
<g>
</g>
<g>
</g>
<g>
</g>
<g>
</g>
<g>
</g>
<g>
</g>
<g>
</g>
<g>
</g>
<g>
</g>
<g>
</g>
<g>
</g>
<g>
</g>
<g>
</g>
</svg>
